HIERARCHY
ROOT Pelvis
{
	OFFSET 0.000000 0.000000 0.000000
	CHANNELS 6 Xposition Yposition Zposition Xrotation Yrotation Zrotation
	JOINT LeftUpLeg_virtual
	{
		OFFSET 0.000000 0.000000 0.000000
		CHANNELS 3 Xrotation Yrotation Zrotation
		JOINT LeftUpLeg
		{
			OFFSET 8.479700 -4.795502 -0.379100
			CHANNELS 3 Xrotation Yrotation Zrotation
			JOINT LeftLeg
			{
				OFFSET 0.024144 -32.555107 0.112900
				CHANNELS 3 Xrotation Yrotation Zrotation
				JOINT LeftFoot
				{
					OFFSET -0.024144 -32.638630 -3.012600
					CHANNELS 3 Xrotation Yrotation Zrotation
					JOINT LeftToeBase
					{
						OFFSET 0.970200 -13.225400 11.864200
						CHANNELS 3 Xrotation Yrotation Zrotation
						End Site
						{
							OFFSET 0 0 0
						}
					}
				}
			}
		}
	}
	JOINT RightUpLeg_virtual
	{
		OFFSET 0.000000 0.000000 0.000000
		CHANNELS 3 Xrotation Yrotation Zrotation
		JOINT RightUpLeg
		{
			OFFSET -8.479700 -4.795502 -0.379100
			CHANNELS 3 Xrotation Yrotation Zrotation
			JOINT RightLeg
			{
				OFFSET -0.023144 -32.555092 0.112900
				CHANNELS 3 Xrotation Yrotation Zrotation
				JOINT RightFoot
				{
					OFFSET 0.023144 -32.638641 -3.012700
					CHANNELS 3 Xrotation Yrotation Zrotation
					JOINT RightToeBase
					{
						OFFSET -0.970200 -13.225400 11.864200
						CHANNELS 3 Xrotation Yrotation Zrotation
						End Site
						{
							OFFSET 0 0 0
						}
					}
				}
			}
		}
	}
	JOINT Hips_virtual
	{
		OFFSET 0.000000 0.000000 0.000000
		CHANNELS 3 Xrotation Yrotation Zrotation
		JOINT Hips
		{
			OFFSET -0.000000 -0.000000 -0.000000
			CHANNELS 3 Xrotation Yrotation Zrotation
			JOINT Spine
			{
				OFFSET 0.000000 7.722000 1.166200
				CHANNELS 3 Xrotation Yrotation Zrotation
				JOINT Spine1
				{
					OFFSET 0.000000 12.024101 0.248800
					CHANNELS 3 Xrotation Yrotation Zrotation
					JOINT Spine2
					{
						OFFSET 0.000000 11.502998 -0.491200
						CHANNELS 3 Xrotation Yrotation Zrotation
						JOINT Neck_virtual
						{
							OFFSET 0.000000 0.000000 0.000000
							CHANNELS 3 Xrotation Yrotation Zrotation
							JOINT Neck
							{
								OFFSET 0.000000 18.430702 -3.123100
								CHANNELS 3 Xrotation Yrotation Zrotation
								JOINT Head
								{
									OFFSET 0.000000 9.051102 1.034000
									CHANNELS 3 Xrotation Yrotation Zrotation
									End Site
									{
										OFFSET 0 0 0
									}
								}
							}
						}
						JOINT LeftShoulder_virtual
						{
							OFFSET 0.000000 0.000000 0.000000
							CHANNELS 3 Xrotation Yrotation Zrotation
							JOINT LeftShoulder
							{
								OFFSET 6.197800 13.665199 -4.064700
								CHANNELS 3 Xrotation Yrotation Zrotation
								JOINT LeftArm
								{
									OFFSET 7.778100 -0.187103 -1.709300
									CHANNELS 3 Xrotation Yrotation Zrotation
									JOINT LeftForeArm
									{
										OFFSET 22.049376 0.000000 0.000000
										CHANNELS 3 Xrotation Yrotation Zrotation
										JOINT LeftHand
										{
											OFFSET 23.009392 0.000000 0.000000
											CHANNELS 3 Xrotation Yrotation Zrotation
											End Site
											{
												OFFSET 0 0 0
											}
										}
									}
								}
							}
						}
						JOINT RightShoulder_virtual
						{
							OFFSET 0.000000 0.000000 0.000000
							CHANNELS 3 Xrotation Yrotation Zrotation
							JOINT RightShoulder
							{
								OFFSET -6.197800 13.665199 -4.064700
								CHANNELS 3 Xrotation Yrotation Zrotation
								JOINT RightArm
								{
									OFFSET -7.778100 -0.187103 -1.709300
									CHANNELS 3 Xrotation Yrotation Zrotation
									JOINT RightForeArm
									{
										OFFSET -22.049376 0.000000 0.000000
										CHANNELS 3 Xrotation Yrotation Zrotation
										JOINT RightHand
										{
											OFFSET -23.009392 0.000000 0.000000
											CHANNELS 3 Xrotation Yrotation Zrotation
											End Site
											{
												OFFSET 0 0 0
											}
										}
									}
								}
							}
						}
					}
				}
			}
		}
	}
}
MOTION
Frames: 6
Frame Time: 0.03333333
54.464531 81.301041 34.054428 0.000000 0.000000 0.000000 4.667453 68.526967 -4.744447 -22.106442 -10.310777 0.464408 19.042984 0.820777 -7.966821 2.687817 -18.979238 6.420006 0.000000 0.000000 0.000000 4.667453 68.526967 -4.744447 -0.442488 -14.269545 -0.563757 32.853770 -2.794244 -3.198234 1.328141 -12.073766 10.144527 0.000000 0.000000 0.000000 4.667453 68.526967 -4.744447 0.000000 -0.000002 0.000000 1.486041 15.620537 -1.867159 0.302475 12.349541 -1.690998 0.000000 0.000000 0.000000 0.319025 12.258885 -2.268430 30.683792 -16.732683 8.274237 0.000000 0.000000 0.000000 0.319025 12.258885 -2.268430 -2.027421 -8.616115 -14.640804 24.659117 -52.430496 -33.897853 0.000022 -67.460815 0.000025 0.000000 0.000000 0.000000 0.319025 12.258885 -2.268430 -8.395407 33.279871 21.038922 6.092957 31.507488 48.663452 -0.000000 48.322403 0.000018 0.000000 0.000000 0.000000 
54.182087 81.268646 33.893917 0.000000 0.000000 0.000000 4.336344 67.333098 -4.409307 -22.238413 -10.144556 0.679387 19.240377 1.645709 -8.020844 2.684590 -18.844195 6.340550 0.000000 0.000000 0.000000 4.336344 67.333098 -4.409307 -0.175326 -12.604237 -0.953143 31.972262 -3.270703 -3.058507 0.324543 -14.855077 9.745900 0.000000 0.000000 0.000000 4.336344 67.333098 -4.409307 0.000000 0.000000 0.000000 1.490566 15.298488 -1.787042 0.343533 12.111554 -1.597175 0.000000 0.000000 0.000000 0.355242 12.030033 -2.142364 30.067719 -16.587188 7.620743 0.000000 0.000000 0.000000 0.355242 12.030033 -2.142364 -1.967086 -8.442193 -14.580907 23.731629 -53.081669 -34.699328 -0.000044 -66.037329 -0.000048 0.000000 0.000000 0.000000 0.355242 12.030033 -2.142364 -8.428599 32.859057 21.486423 5.768042 31.090970 48.692029 -0.000011 48.134409 0.000011 0.000000 0.000000 0.000000 
53.866356 81.257156 33.739681 0.000000 0.000000 0.000000 4.068278 66.054213 -4.190260 -22.323177 -9.936161 1.012213 19.332270 2.532896 -8.069122 2.741310 -18.759203 6.236106 0.000000 0.000000 0.000000 4.068278 66.054213 -4.190260 0.827641 -11.443925 -1.161650 30.010786 -1.840835 -3.036892 -0.130306 -19.777079 9.284836 0.000000 0.000000 0.000000 4.068278 66.054213 -4.190260 0.000000 0.000000 0.000000 1.455058 14.974300 -1.680050 0.349807 11.848943 -1.478821 0.000000 0.000000 0.000000 0.356715 11.776920 -1.992125 29.489342 -16.410160 6.935816 0.000000 0.000000 0.000000 0.356715 11.776920 -1.992125 -1.896977 -8.276097 -14.474764 22.789498 -53.831610 -35.479336 0.000019 -64.514374 0.000020 0.000000 0.000000 0.000000 0.356715 11.776920 -1.992125 -8.483176 32.397804 22.014840 5.554003 30.650365 48.597800 -0.000003 48.025492 -0.000009 0.000000 0.000000 0.000000 
53.535568 81.247772 33.585903 0.000000 0.000000 0.000000 3.850817 64.843302 -3.933420 -22.371101 -9.736984 1.247062 19.280420 3.459556 -8.086548 2.890079 -18.721612 6.116625 0.000000 0.000000 0.000000 3.850817 64.843302 -3.933420 1.804205 -11.166179 -1.477923 27.775927 0.175685 -3.161926 -0.258528 -24.965434 8.717493 0.000000 0.000000 0.000000 3.850817 64.843302 -3.933420 0.000000 0.000000 0.000000 1.453803 14.613338 -1.671180 0.371862 11.541077 -1.378603 0.000000 0.000000 0.000000 0.372755 11.478290 -1.856315 28.899306 -16.213875 6.271612 0.000000 0.000000 0.000000 0.372755 11.478290 -1.856315 -1.822195 -8.117079 -14.348527 21.935733 -54.672164 -36.106559 -0.000006 -62.965069 -0.000008 0.000000 0.000000 0.000000 0.372755 11.478290 -1.856315 -8.552615 31.896888 22.612279 5.447661 30.142516 48.410847 -0.000006 48.027602 0.000001 0.000000 0.000000 0.000000 
53.207287 81.227097 33.434795 0.000000 0.000000 0.000000 3.626515 63.736634 -3.482676 -22.375568 -9.816786 1.212900 19.110562 4.659010 -8.084600 3.098593 -18.686312 5.963976 0.000000 0.000000 0.000000 3.626515 63.736634 -3.482676 2.862738 -12.259326 -1.636290 26.011753 2.736800 -3.746074 -2.037988 -30.175462 7.606060 0.000000 0.000000 0.000000 3.626515 63.736634 -3.482676 0.000000 0.000001 0.000000 1.492042 14.235710 -1.854063 0.384028 11.204899 -1.354483 0.000000 0.000000 0.000000 0.372953 11.147830 -1.802457 28.337753 -15.959468 5.895241 0.000000 0.000000 0.000000 0.372953 11.147830 -1.802457 -1.753735 -7.966576 -14.248955 21.259317 -55.512946 -36.485559 -0.000009 -61.536180 -0.000002 0.000000 0.000000 0.000000 0.372953 11.147830 -1.802457 -8.616520 31.369396 23.230771 5.446722 29.578995 48.140003 -0.000011 48.198429 0.000014 0.000000 0.000000 0.000000 
52.808838 81.222794 33.315197 0.000000 0.000000 0.000000 3.515995 62.158519 -3.197258 -22.357330 -9.461305 1.506319 18.878489 5.702332 -8.111726 3.304098 -18.544645 5.764497 0.000000 0.000000 0.000000 3.515995 62.158519 -3.197258 2.801136 -13.354370 -1.397480 24.965907 1.216750 -4.820118 -3.712105 -30.602632 6.640823 0.000000 0.000000 0.000000 3.515995 62.158519 -3.197258 0.000000 0.000002 0.000000 1.476360 14.078248 -2.053872 0.373124 11.056583 -1.378680 0.000000 0.000000 0.000000 0.360281 11.001747 -1.801466 27.805505 -15.757839 5.758844 0.000000 0.000000 0.000000 0.360281 11.001747 -1.801466 -1.707230 -7.830353 -14.234792 20.800334 -56.184446 -36.603643 -0.000010 -60.431267 -0.000021 0.000000 0.000000 0.000000 0.360281 11.001747 -1.801466 -8.647020 30.837771 23.797750 5.562965 29.024120 47.757451 -0.000005 48.635277 -0.000005 0.000000 0.000000 0.000000 
